<svg xmlns="http://www.w3.org/2000/svg" xmlns:xlink="http://www.w3.org/1999/xlink" aria-hidden="true" role="img" class="iconify iconify--logos" width="35.93" height="32" preserveAspectRatio="xMidYMid meet" viewBox="0 0 256 228"><path fill="#00D8FF" d="M210.483 73.824a171.49 171.49 0 0 0-11.622-4.006c.465-1.9.893-3.777 1.273-5.621c6.238-30.281 2.16-54.676-11.769-62.708c-13.355-7.7-35.196.329-57.254 19.526a171.23 171.23 0 0 0-7.18 6.623a155.866 155.866 0 0 0-4.118-3.855C100.759 2.708 76.88-5.722 62.58 2.493C47.903 11.033 43.61 36.1 50.336 67.206a170.974 170.974 0 0 0 3.28 11.896a145.465 145.465 0 0 0-11.895 4.275C15.354 91.362 0 111.225 0 129.681c0 19.218 16.283 40.154 43.993 55.667a145.323 145.323 0 0 0 5.94 2.953a171.113 171.113 0 0 0-3.776 12.667c-6.726 31.106-2.433 56.173 12.244 64.713c14.3 8.215 38.179-.215 60.784-20.11a145.747 145.747 0 0 0 4.118 3.855a171.49 171.49 0 0 0 7.18-6.624c22.058 19.197 43.899 27.226 57.254 19.526c13.929-8.032 18.007-32.427 11.77-62.708a145.947 145.947 0 0 0-1.273-5.621a171.23 171.23 0 0 0 11.622-4.006c27.71-15.513 43.993-36.449 43.993-55.667c0-18.456-15.354-38.32-41.721-46.326Zm-6.762 101.972a123.26 123.26 0 0 1-9.996 3.592a123.394 123.394 0 0 1-8.184 2.373c.372-1.518.716-3.01 1.03-4.473c5.008-23.45 1.73-42.33-9.45-48.536c-11.724-6.768-30.91.255-50.26 15.12a123.718 123.718 0 0 1-5.76 5.32a125.83 125.83 0 0 1-3.304-3.094c-18.03-17.15-35.84-25.59-48.28-19.808c-13.096 6.08-16.848 28.15-11.34 52.33a125.392 125.392 0 0 1 2.633 9.21a123.26 123.26 0 0 1-9.555 3.435C18.17 161.7 6.667 146.35 6.667 129.68c0-17.45 12.272-33.58 33.417-43.8a123.718 123.718 0 0 1 4.768-2.37a125.83 125.83 0 0 1 3.034-10.25c-5.508-24.18-1.756-46.25 11.34-52.33c12.44-5.782 30.25 2.658 48.28 19.808a125.392 125.392 0 0 1 3.304 3.094a123.394 123.394 0 0 1 5.76-5.32c19.35-14.865 38.536-21.888 50.26-15.12c11.18 6.206 14.458 25.086 9.45 48.536a123.718 123.718 0 0 1-1.03 4.473a125.83 125.83 0 0 1 8.184-2.373a123.26 123.26 0 0 1 9.996-3.592c21.145 10.22 33.417 26.35 33.417 43.8c0 16.67-11.503 32.02-30.246 40.292Z"></path></svg>


