<svg xmlns="http://www.w3.org/2000/svg" viewBox="0 0 128 128" width="128" height="128"><defs><linearGradient id="a" x1="64" y1="8" x2="64" y2="120" gradientUnits="userSpaceOnUse"><stop offset="0" stop-color="#24C8DB"/><stop offset="1" stop-color="#7C3AED"/></linearGradient></defs><path fill="url(#a)" d="M64 8C33.072 8 8 33.072 8 64s25.072 56 56 56 56-25.072 56-56S94.928 8 64 8zm0 16c22.056 0 40 17.944 40 40S86.056 104 64 104 24 86.056 24 64 41.944 24 64 24z"/><path fill="url(#a)" d="M64 32c17.673 0 32 14.327 32 32S81.673 96 64 96 32 81.673 32 64 46.327 32 64 32z"/></svg>


